<?xml version="1.0" encoding="UTF-8" standalone="no"?><!DOCTYPE svg PUBLIC "-//W3C//DTD SVG 1.1//EN" "http://www.w3.org/Graphics/SVG/1.1/DTD/svg11.dtd"><svg width="100%" height="100%" viewBox="0 0 62 62" version="1.1" xmlns="http://www.w3.org/2000/svg" xmlns:xlink="http://www.w3.org/1999/xlink" xml:space="preserve" xmlns:serif="http://www.serif.com/" style="fill-rule:evenodd;clip-rule:evenodd;stroke-linecap:round;stroke-linejoin:round;stroke-miterlimit:1.5;"><rect id="Cutout_BW" x="0" y="0" width="61.44" height="61.44" style="fill:none;"/><g id="Cutout_BW1" serif:id="Cutout_BW"><path id="AppBk" d="M59.134,17.069l0,27.303c0,7.319 -5.942,13.261 -13.261,13.261l-30.306,0c-7.319,0 -13.261,-5.942 -13.261,-13.261l0,-27.303c0,-7.319 5.942,-13.261 13.261,-13.261l30.306,0c7.319,0 13.261,5.942 13.261,13.261Zm-13.378,5.465c-0.816,-0.816 -1.246,-0.942 -1.756,-0.962c-2.057,-0.083 -2.29,0.061 -3.118,0.688c-0.573,0.434 -0.495,0.627 -0.768,1.024c-0.107,0.155 -0.117,0.134 -0.234,0.296c-0.139,0.19 -0.517,2.325 0.119,3.123c0.405,0.508 0.194,0.689 0.778,1.103c0.452,0.32 0.475,0.275 0.922,0.607c0.403,0.299 2.236,0.215 2.565,0.109c0.925,-0.3 1.638,-1.025 1.756,-1.145c0.955,-0.972 0.727,-3.015 0.622,-3.349c-0.268,-0.847 -0.257,-0.866 -0.884,-1.493Zm-35.228,-10.43l4.404,4.083l-4.406,4.107c-0.544,0.507 -0.574,1.36 -0.067,1.904c0.507,0.544 1.36,0.574 1.904,0.067l5.466,-5.094c0.274,-0.255 0.429,-0.613 0.429,-0.987c-0,-0.374 -0.157,-0.731 -0.431,-0.986l-5.466,-5.068c-0.545,-0.505 -1.398,-0.473 -1.903,0.072c-0.505,0.545 -0.473,1.398 0.072,1.903Zm28.732,19.158c-2.078,0.068 -4.227,-0.093 -4.45,0.147c-0.294,0.317 0.073,11.491 -0.212,12.362c-0.109,0.333 -0.701,1.577 -1.684,2.563c-1.211,1.215 -1.566,0.912 -2.027,1.165c-0.91,0.5 -1.048,0.333 -5.035,0.342c-0.065,0 -1.204,0.003 -0.36,0.732c0.358,0.309 0.26,0.387 0.589,0.73c1.064,1.11 1.07,1.098 1.558,1.381c0.051,0.03 0.423,0.369 0.58,0.431c2.056,0.816 2.407,0.854 2.627,0.878c0.729,0.078 1.676,0.537 3.138,0.096c0.522,-0.158 1.078,-0.018 1.564,-0.27c0.125,-0.065 0.841,-0.436 1.637,-0.631c0.609,-0.15 0.679,-0.524 1.09,-0.764c0.829,-0.483 0.766,-0.557 1.437,-1.234c0.452,-0.456 0.658,-1.123 0.922,-1.458c0.632,-0.802 0.47,-1.041 0.847,-1.831c0.371,-0.776 0.117,-0.831 0.341,-1.653c0.204,-0.748 0.158,-0.749 0.159,-1.816c0.008,-8.836 -0.042,-8.831 -0.074,-8.942c-0.251,-0.853 -0.25,-0.869 -0.879,-1.495c-0.708,-0.704 -0.762,-0.669 -1.766,-0.733Zm-24.176,13.93c2.798,-0.038 2.792,-0.013 13.664,-0.014c1.369,-0 1.403,0.113 2.376,-0.364c0.08,-0.039 0.076,-0.047 0.687,-0.876c0.446,-0.606 0.449,-1.622 0.449,-1.768c0.032,-13.134 -0.077,-13.199 0.148,-13.425c0.335,-0.335 1.116,0.159 2.173,-0.396c0.059,-0.031 0.066,-0.009 0.748,-0.355c0.429,-0.218 0.362,-0.306 0.789,-0.526c0.568,-0.293 0.765,-1.127 1.098,-1.551c0.241,-0.308 0.182,-0.334 0.488,-1.35c0.238,-0.791 -0.049,-1.921 -0.09,-2.083c-0.147,-0.579 -0.047,-0.622 -0.52,-1.302c-0.328,-0.471 -0.213,-0.552 -0.645,-0.919c-0.295,-0.25 -0.233,-0.307 -0.544,-0.527c-0.455,-0.321 -0.476,-0.274 -0.921,-0.605c-0.272,-0.203 -0.87,-0.161 -1.267,-0.285c-1.19,-0.373 -1.202,-0.035 -2.35,0.095c-0.554,0.062 -0.541,0.107 -1.004,0.426c-0.534,0.367 -0.62,0.259 -1.029,0.769c-0.268,0.334 -0.804,0.398 -1.392,2.315c-0.05,0.162 -0.134,0.438 -0.075,2.114c0.026,0.724 0.569,1.051 -0.138,1.171c-0.411,0.07 -12.662,-0.138 -13.444,0.121c-1.081,0.358 -1.344,1.161 -1.391,1.306c-0.346,1.056 -0.288,1.075 -0.288,4.231c0,11.492 -0.024,11.507 0.179,12.061c0.135,0.368 0.107,0.877 1.282,1.531c0.28,0.156 0.295,0.103 1.016,0.206Zm6.7,-9.594c-0.086,-2.247 0.093,-3.962 -0.14,-4.197c-0.255,-0.258 -2.632,-0.094 -2.911,-0.152c-0.519,-0.108 -0.703,-1.342 0.292,-1.313c1.445,0.041 1.436,0.018 2.89,0.018c4.317,-0 4.548,-0.087 4.611,0.401c0.123,0.95 -0.239,0.921 -1.195,0.923c-1.187,0.003 -2.09,-0.149 -2.236,0.393c-0.018,0.068 0.011,8.818 -0.018,8.948c-0.113,0.511 -1.342,0.656 -1.314,-0.292c0.024,-0.808 0.02,-0.801 0.02,-4.729Zm24.31,-4.337c-2.001,0.067 -2.045,-0.072 -2.155,0.061c-0.043,0.051 -0.206,0.249 0.126,0.824c0.419,0.727 0.359,0.769 0.359,4.241c-0,8.378 0.057,8.414 -0.366,9.485c-0.55,1.393 2.1,0.177 2.662,-0.459c0.422,-0.477 0.974,-0.428 1.3,-1.376c0.196,-0.57 0.388,-0.482 0.52,-1.063c0.221,-0.978 0.252,-0.969 0.265,-1.055c0.053,-0.353 0.022,-8.141 0.021,-8.164c-0.035,-0.753 -0.635,-1.653 -0.853,-1.873c-0.587,-0.59 -1.211,-0.581 -1.878,-0.62Z" style="stroke:#778aee;stroke-width:0.24px;"/></g></svg>