<?xml version="1.0" encoding="UTF-8" standalone="no"?><!DOCTYPE svg PUBLIC "-//W3C//DTD SVG 1.1//EN" "http://www.w3.org/Graphics/SVG/1.1/DTD/svg11.dtd"><svg width="100%" height="100%" viewBox="0 0 62 62" version="1.1" xmlns="http://www.w3.org/2000/svg" xmlns:xlink="http://www.w3.org/1999/xlink" xml:space="preserve" xmlns:serif="http://www.serif.com/" style="fill-rule:evenodd;clip-rule:evenodd;stroke-linecap:round;stroke-linejoin:round;stroke-miterlimit:1.5;"><rect id="DarkMode_Color" x="0.151" y="0.143" width="61.44" height="61.44" style="fill:none;"/><path d="M59.285,17.212l0,27.303c0,7.319 -5.942,13.261 -13.261,13.261l-30.306,0c-7.319,0 -13.261,-5.942 -13.261,-13.261l-0,-27.303c0,-7.319 5.942,-13.261 13.261,-13.261l30.306,0c7.319,0 13.261,5.942 13.261,13.261Z" style="fill:#778aee;"/><g id="TeamsIcon"><path d="M15.236,45.334c-0.721,-0.103 -0.736,-0.051 -1.016,-0.206c-1.175,-0.654 -1.148,-1.163 -1.282,-1.531c-0.203,-0.555 -0.179,-0.569 -0.179,-12.061c0,-3.155 -0.059,-3.174 0.288,-4.231c0.048,-0.145 0.31,-0.947 1.391,-1.306c0.781,-0.259 13.033,-0.051 13.444,-0.121c0.707,-0.12 0.164,-0.447 0.138,-1.171c-0.059,-1.676 0.025,-1.952 0.075,-2.114c0.588,-1.918 1.123,-1.981 1.392,-2.315c0.409,-0.509 0.495,-0.402 1.029,-0.769c0.464,-0.319 0.451,-0.364 1.004,-0.426c1.148,-0.13 1.16,-0.468 2.35,-0.095c0.398,0.125 0.995,0.082 1.267,0.285c0.444,0.331 0.466,0.285 0.921,0.605c0.311,0.219 0.249,0.276 0.544,0.527c0.432,0.367 0.317,0.448 0.645,0.919c0.473,0.679 0.373,0.722 0.52,1.302c0.041,0.162 0.328,1.293 0.09,2.083c-0.306,1.016 -0.247,1.042 -0.488,1.35c-0.333,0.424 -0.529,1.258 -1.098,1.551c-0.427,0.22 -0.36,0.309 -0.789,0.526c-0.682,0.346 -0.689,0.324 -0.748,0.355c-1.057,0.556 -1.838,0.061 -2.173,0.396c-0.225,0.225 -0.116,0.291 -0.148,13.425c-0,0.146 -0.003,1.162 -0.449,1.768c-0.611,0.829 -0.607,0.837 -0.687,0.876c-0.973,0.477 -1.007,0.364 -2.376,0.364c-10.872,0.001 -10.867,-0.024 -13.664,0.014l6.7,-9.594c-0,3.929 0.004,3.921 -0.02,4.729c-0.028,0.948 1.202,0.803 1.314,0.292c0.029,-0.13 -0.001,-8.88 0.018,-8.948c0.146,-0.542 1.049,-0.39 2.236,-0.393c0.956,-0.003 1.318,0.027 1.195,-0.923c-0.063,-0.489 -0.295,-0.401 -4.611,-0.401c-1.453,-0 -1.445,0.023 -2.89,-0.018c-0.995,-0.028 -0.811,1.205 -0.292,1.313c0.279,0.058 2.655,-0.106 2.911,0.152c0.233,0.235 0.054,1.95 0.14,4.197l-6.7,9.594Z" style="fill:#fff;fill-opacity:0.99;"/><path d="M39.412,31.404c1.004,0.064 1.058,0.029 1.766,0.733c0.63,0.626 0.628,0.642 0.879,1.495c0.033,0.111 0.082,0.105 0.074,8.942c-0.001,1.067 0.045,1.068 -0.159,1.816c-0.224,0.822 0.03,0.878 -0.341,1.653c-0.377,0.79 -0.215,1.029 -0.847,1.831c-0.264,0.335 -0.47,1.002 -0.922,1.458c-0.671,0.677 -0.608,0.751 -1.437,1.234c-0.411,0.24 -0.481,0.614 -1.09,0.764c-0.797,0.196 -1.513,0.567 -1.637,0.631c-0.486,0.252 -1.043,0.113 -1.564,0.27c-1.462,0.442 -2.409,-0.018 -3.138,-0.096c-0.22,-0.024 -0.571,-0.061 -2.627,-0.878c-0.157,-0.062 -0.528,-0.401 -0.58,-0.431c-0.488,-0.283 -0.494,-0.271 -1.558,-1.381c-0.329,-0.343 -0.231,-0.421 -0.589,-0.73c-0.843,-0.729 0.295,-0.731 0.36,-0.732c3.987,-0.01 4.126,0.158 5.035,-0.342c0.462,-0.254 0.816,0.05 2.027,-1.165c0.983,-0.986 1.576,-2.23 1.684,-2.563c0.284,-0.871 -0.082,-12.045 0.212,-12.362c0.222,-0.24 2.372,-0.079 4.45,-0.147Z" style="fill:#fff;fill-opacity:0.99;"/><path d="M46.245,31.403c0.667,0.039 1.292,0.03 1.878,0.62c0.219,0.22 0.819,1.119 0.853,1.873c0.001,0.024 0.032,7.812 -0.021,8.164c-0.013,0.086 -0.043,0.077 -0.265,1.055c-0.132,0.581 -0.324,0.494 -0.52,1.063c-0.326,0.948 -0.879,0.899 -1.3,1.376c-0.562,0.636 -3.213,1.853 -2.662,0.459c0.423,-1.071 0.366,-1.107 0.366,-9.485c-0,-3.472 0.061,-3.514 -0.359,-4.241c-0.332,-0.576 -0.169,-0.773 -0.126,-0.824c0.11,-0.133 0.155,0.006 2.155,-0.061Z" style="fill:#fff;fill-opacity:0.99;"/><path d="M45.907,22.676c0.627,0.627 0.617,0.647 0.884,1.493c0.106,0.334 0.333,2.377 -0.622,3.349c-0.118,0.12 -0.83,0.845 -1.756,1.145c-0.329,0.107 -2.161,0.19 -2.565,-0.109c-0.447,-0.331 -0.47,-0.287 -0.922,-0.607c-0.585,-0.414 -0.373,-0.595 -0.778,-1.103c-0.636,-0.797 -0.257,-2.933 -0.119,-3.123c0.117,-0.161 0.127,-0.14 0.234,-0.296c0.274,-0.397 0.195,-0.591 0.768,-1.024c0.828,-0.627 1.061,-0.771 3.118,-0.688c0.51,0.021 0.941,0.146 1.756,0.962Z" style="fill:#fff;fill-opacity:0.99;"/></g><path id="Cursor" d="M11.595,11.259l5.466,5.068l-5.466,5.094" style="fill:none;stroke:#fff;stroke-width:2.69px;"/></svg>